<?xml version="1.0" encoding="UTF-8" standalone="no"?>
<svg
   xmlns:dc="http://purl.org/dc/elements/1.1/"
   xmlns:cc="http://creativecommons.org/ns#"
   xmlns:rdf="http://www.w3.org/1999/02/22-rdf-syntax-ns#"
   xmlns:svg="http://www.w3.org/2000/svg"
   xmlns="http://www.w3.org/2000/svg"
   xmlns:sodipodi="http://sodipodi.sourceforge.net/DTD/sodipodi-0.dtd"
   xmlns:inkscape="http://www.inkscape.org/namespaces/inkscape"
   viewBox="0 0 512 512"
   version="1.1"
   id="svg4"
   sodipodi:docname="pen-to-square-solid.svg"
   inkscape:version="0.92.5 (2060ec1f9f, 2020-04-08)">
  <metadata
     id="metadata10">
    <rdf:RDF>
      <cc:Work
         rdf:about="">
        <dc:format>image/svg+xml</dc:format>
        <dc:type
           rdf:resource="http://purl.org/dc/dcmitype/StillImage" />
      </cc:Work>
    </rdf:RDF>
  </metadata>
  <defs
     id="defs8" />
  <sodipodi:namedview
     pagecolor="#ffffff"
     bordercolor="#666666"
     borderopacity="1"
     objecttolerance="10"
     gridtolerance="10"
     guidetolerance="10"
     inkscape:pageopacity="0"
     inkscape:pageshadow="2"
     inkscape:window-width="1600"
     inkscape:window-height="851"
     id="namedview6"
     showgrid="false"
     inkscape:zoom="0.4609375"
     inkscape:cx="-173.55932"
     inkscape:cy="342.77966"
     inkscape:window-x="0"
     inkscape:window-y="0"
     inkscape:window-maximized="1"
     inkscape:current-layer="svg4" />
  <!--! Font Awesome Pro 6.0.0 by @fontawesome - https://fontawesome.com License - https://fontawesome.com/license (Commercial License) Copyright 2022 Fonticons, Inc. -->
  <path
     d="m 48.379324,466.19499 c 2.160901,2 2.160901,6 0,8 l -2.960201,3 -9.669905,-10 2.970101,-3 c 2.160901,-2 5.653903,-2 7.814904,0 z m -31.368115,19.90001 16.507978,-16.50001 9.669905,10 -16.517849,16.50001 c -0.6019,0.61 -1.342,1 -2.160901,1 l -8.762104,3 c -0.937401,0.28 -1.786001,0.06 -2.427401,-0.66 -0.631501,-0.55 -0.848581,-1 -0.572301,-2 l 2.920702,-9 c 0.27628,-0.82 0.73018,-2 1.342001,-2 z m 1.934,-17.60001 c 1.746501,0 3.157502,1 3.157502,3 0,2 -1.411001,3 -3.157502,3 H 9.4726047 c -1.7435508,0 -3.1575315,2 -3.1575315,3 v 25.40002 c 0,2 1.4139807,3 3.1575315,3 H 34.732867 c 1.746501,0 3.157502,-1 3.157502,-3 V 492.895 c 0,-2 1.411001,-3 3.157502,-3 1.7465,0 3.157501,2 3.157501,3 v 10.00001 c 0,5 -4.242902,9 -9.472605,9 H 9.4725947 C 4.2409621,512.72501 0,508.48501 0,503.25501 v -25.40002 c 0,-5 4.2409621,-9 9.4725947,-9 z"
     id="path2"
     inkscape:connector-curvature="0"
     style="stroke-width:0.09867005;fill:#ffffff"
     inkscape:export-xdpi="96"
     inkscape:export-ydpi="96" />
</svg>
