<?xml version="1.0" encoding="UTF-8" standalone="no"?>
<svg
   xmlns:dc="http://purl.org/dc/elements/1.1/"
   xmlns:cc="http://creativecommons.org/ns#"
   xmlns:rdf="http://www.w3.org/1999/02/22-rdf-syntax-ns#"
   xmlns:svg="http://www.w3.org/2000/svg"
   xmlns="http://www.w3.org/2000/svg"
   xmlns:sodipodi="http://sodipodi.sourceforge.net/DTD/sodipodi-0.dtd"
   xmlns:inkscape="http://www.inkscape.org/namespaces/inkscape"
   viewBox="0 0 448 512"
   version="1.1"
   id="svg4"
   sodipodi:docname="trash-solid.svg"
   inkscape:version="0.92.5 (2060ec1f9f, 2020-04-08)">
  <metadata
     id="metadata10">
    <rdf:RDF>
      <cc:Work
         rdf:about="">
        <dc:format>image/svg+xml</dc:format>
        <dc:type
           rdf:resource="http://purl.org/dc/dcmitype/StillImage" />
      </cc:Work>
    </rdf:RDF>
  </metadata>
  <defs
     id="defs8" />
  <sodipodi:namedview
     pagecolor="#ffffff"
     bordercolor="#666666"
     borderopacity="1"
     objecttolerance="10"
     gridtolerance="10"
     guidetolerance="10"
     inkscape:pageopacity="0"
     inkscape:pageshadow="2"
     inkscape:window-width="1600"
     inkscape:window-height="851"
     id="namedview6"
     showgrid="false"
     inkscape:zoom="0.4609375"
     inkscape:cx="-205.55932"
     inkscape:cy="256"
     inkscape:window-x="0"
     inkscape:window-y="0"
     inkscape:window-maximized="1"
     inkscape:current-layer="svg4" />
  <!--! Font Awesome Pro 6.0.0 by @fontawesome - https://fontawesome.com License - https://fontawesome.com/license (Commercial License) Copyright 2022 Fonticons, Inc. -->
  <path
     d="m 15.089286,456.83147 c 0.602678,-1.21004 1.841518,-1.97433 3.191964,-1.97433 h 13.4375 c 1.350446,0 2.589286,0.76429 3.191964,1.97433 l 0.803572,1.5971 H 46.428571 C 48.404018,458.42857 50,460.0279 50,462 c 0,1.9721 -1.595982,3.57143 -3.571429,3.57143 H 3.5714286 C 1.5993304,465.57143 0,463.9721 0,462 c 0,-1.9721 1.5993304,-3.57143 3.5714286,-3.57143 H 14.285714 Z M 44.0625,506.87723 C 43.883929,509.80134 41.551339,512 38.716518,512 H 11.283482 c -2.8292409,0 -5.1707588,-2.19866 -5.3470981,-5.12277 L 3.4709821,469.14286 H 46.428571 Z"
     id="path2"
     inkscape:connector-curvature="0"
     style="stroke-width:0.11160714;fill:#ffffff"
     inkscape:export-xdpi="96"
     inkscape:export-ydpi="96" />
</svg>
